<svg xmlns="http://www.w3.org/2000/svg" viewBox="0 0 99 99">
  <g>
    <path d="M43.25,50.11a3.19,3.19,0,0,0-.35,1.44,3.65,3.65,0,0,0,7.25.35Z" transform="translate(-0.5 -0.5)" fill="#1b4f25">
        <animate attributeType="CSS" attributeName="opacity" 
           from="1" to="0" dur="0.5s" repeatCount="indefinite" />
    </path>
    <path d="M56.13,51.85a3.73,3.73,0,0,0,7.39-.35A3.21,3.21,0,0,0,63.16,50Z" transform="translate(-0.5 -0.5)" style="fill: #1b4f25;fill-rule: evenodd">
        <animate attributeType="CSS" attributeName="opacity" 
           from="1" to="0" dur="0.5s" repeatCount="indefinite" />
    </path>
    <path d="M73.61,45.33c-2.71-1.06-9.81-3.51-17-3.15-.09-.24,9.69-.34,16.69,1.24a30.94,30.94,0,0,0-1.71-6.52S52.15,32.14,36.78,34l-.13-.16s-12.82-5.5-15-12.63c-.29,0-5.31,8.65-3.16,9.68A26.75,26.75,0,0,1,34.62,36q-.16.44-.33,1a13.5,13.5,0,0,0-11.64-.38c-.37.6-2.14,6.8-.3,5.8,2.07-1.31,7.17-2.5,11.36-3.3a64.86,64.86,0,0,0-.5,27c6.92-2.15,19.23-2.06,19.13-1.8-9.12-.44-18.16,3.48-18.16,3.48l-.58.09a47,47,0,0,0,2.12,6.63c5.15,2,30.76-1.5,36.54-3.47C72.25,70.78,75,57.13,73.61,45.33ZM70.08,54l-.13.79a4.52,4.52,0,0,1-5,4,73.86,73.86,0,0,0-23.24,0,4.52,4.52,0,0,1-5-4L36.61,54a4.82,4.82,0,0,1,3.86-5.62,81.85,81.85,0,0,1,25.76,0A4.82,4.82,0,0,1,70.08,54Z" transform="translate(-0.5 -0.5)" style="fill: #2fa736"/>
    <path d="M35.2,73.21c.17.45.33.9.52,1.35,5.15,2,30.76-1.5,36.54-3.47,0-.1.28-1.58.62-3.93C69.66,68.82,60.12,72.26,35.2,73.21Z" transform="translate(-0.5 -0.5)" style="fill: #3c763e;fill-rule: evenodd"/>
    <path d="M35.71,34.1a.79.79,0,0,0-.26.24c19.4,1.35,30.31,3.32,37.16,5.52a26.12,26.12,0,0,0-1-3S51.22,31.91,35.71,34.1Z" transform="translate(-0.5 -0.5)" style="fill: #3c763e;fill-rule: evenodd"/>
    <path d="M34.43,37.94A.83.83,0,0,0,34,36.86a32.81,32.81,0,0,0-12.42,4.38c-.05,1,.13,1.57.81,1.2,2.11-1.34,7.36-2.54,11.6-3.35Z" transform="translate(-0.5 -0.5)" style="fill: #3c763e"/>
    <path d="M35.28,34.65a140.81,140.81,0,0,0-16.88-7c-.49,1.52-.62,2.81.13,3.17A26.78,26.78,0,0,1,34.63,36C35.09,36.41,36.72,35.39,35.28,34.65Z" transform="translate(-0.5 -0.5)" style="fill: #3c763e"/>
  </g>
  <circle cx="49" cy="49" r="47" style="fill: none;stroke: #8cc63f;stroke-miterlimit: 10;stroke-width: 4px;stroke-dasharray: 12.301348686218262,12.301348686218262">
       <animateTransform 
           attributeName="transform" 
           attributeType="XML"
           type="rotate"
           from="0 49.5 49.5"
           to="360 49.5 49.5"
           dur="10s"
           repeatCount="indefinite"/>
  </circle>
</svg>
